# xmcd
#
# Track frame offsets: 
#        150
#        12727
#        25586
#        38664
#        51137
#        70677
#        87411
#        100942
#        111553
#        124799
#        136978
#        147702
#        157177
#        170254
#        180982
#        195285
#        207577
#        218626
#        230393
#        244298
#
# Disc length: 3488 seconds
#
# Revision: 0
# Processed by: cddbd v1.5.1PL0 Copyright (c) Steve Scherf et al.
# Submitted via: ExactAudioCopy v0.95a4
#
DISCID=1f0d9e14
DTITLE=Various Artist - Best Of Country CD2
DYEAR=2005
DGENRE=Country
TTITLE0=Charlie Rich - The Most Beautiful Girl In The World
TTITLE1=Faron Young - It's Four In The Morning
TTITLE2=Lynn Anderson - Rose Garden
TTITLE3=Jerry Wallace - In The Misty Moonlight
TTITLE4=Kenny Rogers - She Believes In Me
TTITLE5=Lee Greenwood - Ring On Her Finger, Time On Her Hands
TTITLE6=T.Graham Brown - I Tell It Like It Used To Be
TTITLE7=Eddy Raven - I Got Mexico
TTITLE8=Conway Twitty - Danny Boy
TTITLE9=Frankie Laine - Jezebel
TTITLE10=Eddy Arnold - The Cattle Call
TTITLE11=Tennessee Ernie Ford and Helen O'Connell - Hey Good Lookin'
TTITLE12=Hank Williams - Jambalaya (On The Bayou)
TTITLE13=Patsy Cline - Honky Tonk Merry Go Round
TTITLE14=Slim Whitman - Indian Love Call
TTITLE15=Merle Haggard - Okie From Muskogee
TTITLE16=Roger Miller - King Of The Road
TTITLE17=Troy Shondell - This Time
TTITLE18=The Kendalls - Crying Time
TTITLE19=Kenny Rogers - Lady
EXTD=
EXTT0=
EXTT1=
EXTT2=
EXTT3=
EXTT4=
EXTT5=
EXTT6=
EXTT7=
EXTT8=
EXTT9=
EXTT10=
EXTT11=
EXTT12=
EXTT13=
EXTT14=
EXTT15=
EXTT16=
EXTT17=
EXTT18=
EXTT19=
PLAYORDER=
